<?xml version="1.0" standalone="no"?>
<!DOCTYPE svg PUBLIC "-//W3C//DTD SVG 20010904//EN"
 "http://www.w3.org/TR/2001/REC-SVG-20010904/DTD/svg10.dtd">
<svg version="1.0" xmlns="http://www.w3.org/2000/svg"
 width="527.000000pt" height="527.000000pt" viewBox="0 0 527.000000 527.000000"
 preserveAspectRatio="xMidYMid meet">
<metadata>
Created by potrace 1.14, written by Peter Selinger 2001-2017
</metadata>
<g transform="translate(0.000000,527.000000) scale(0.100000,-0.100000)"
fill="#000000" stroke="none">
<path d="M3046 4672 c-4 -4 -11 -7 -14 -7 -32 -3 -82 -18 -82 -25 0 -6 -3 -9
-7 -8 -5 2 -19 -5 -33 -15 -13 -9 -22 -17 -18 -17 3 0 -7 -14 -23 -31 -16 -17
-26 -35 -23 -40 3 -5 1 -9 -4 -9 -5 0 -9 -6 -10 -12 -5 -39 -9 -55 -16 -66 -4
-7 -2 -12 5 -12 10 0 10 -3 1 -12 -8 -8 -8 -17 -1 -30 5 -10 7 -22 4 -27 -3
-5 2 -16 10 -24 8 -9 15 -20 15 -26 0 -14 58 -74 85 -89 11 -6 15 -12 10 -12
-6 0 -10 -21 -10 -46 1 -25 -2 -47 -5 -49 -4 -2 -6 -20 -5 -39 1 -20 -1 -36
-5 -36 -4 0 -7 -15 -8 -32 -3 -82 -6 -108 -11 -108 -3 0 -6 -12 -6 -27 -1 -44
-13 -131 -19 -142 -4 -5 -19 -6 -34 -3 -39 11 -255 2 -322 -12 -13 -3 -42 -8
-64 -12 -22 -3 -43 -7 -47 -9 -3 -2 -21 -7 -40 -10 -42 -7 -203 -61 -241 -81
-16 -8 -33 -12 -38 -9 -6 3 -10 2 -10 -4 0 -5 -10 -13 -22 -17 -13 -4 -25 -9
-28 -13 -3 -3 -31 -19 -63 -36 -66 -35 -211 -136 -265 -186 -21 -19 -50 -44
-66 -56 -16 -13 -27 -23 -24 -23 3 0 -16 -22 -41 -48 -25 -27 -57 -63 -71 -81
-14 -18 -30 -38 -35 -44 -20 -22 -76 -107 -71 -107 3 0 -6 -12 -19 -26 -14
-15 -22 -30 -19 -35 3 -5 2 -9 -3 -9 -4 0 -21 -29 -38 -65 -16 -36 -34 -65
-38 -65 -5 0 -6 -4 -3 -8 3 -5 -1 -20 -9 -35 -8 -15 -11 -27 -8 -27 3 0 1 -6
-4 -12 -6 -7 -16 -30 -23 -51 l-12 -38 -66 7 c-37 3 -76 8 -87 11 -11 2 -42 7
-70 9 -27 3 -67 9 -87 13 -20 5 -39 6 -42 3 -3 -2 -20 -6 -38 -8 -70 -7 -168
-45 -168 -65 0 -6 -4 -7 -10 -4 -5 3 -10 1 -10 -4 0 -6 -7 -11 -15 -11 -8 0
-15 -7 -15 -15 0 -8 -7 -15 -17 -15 -9 0 -14 -3 -10 -6 3 -3 -2 -14 -11 -24
-36 -39 -53 -69 -57 -100 0 -3 -4 -10 -8 -16 -6 -11 -13 -46 -22 -113 -2 -14
-4 -26 -5 -26 -1 0 -3 -20 -5 -44 -3 -25 -6 -58 -9 -75 -3 -17 -8 -53 -11 -81
-11 -90 -14 -98 -42 -129 -15 -16 -39 -42 -53 -57 -14 -15 -52 -57 -85 -94
-33 -37 -81 -89 -108 -116 -26 -27 -44 -49 -40 -49 4 0 0 -6 -9 -13 -8 -6 -18
-27 -21 -44 -5 -25 -1 -38 16 -56 26 -28 41 -34 122 -42 33 -4 72 -9 88 -11
66 -10 85 -12 132 -18 28 -4 70 -9 95 -12 25 -3 58 -8 75 -10 49 -7 167 -23
210 -28 22 -2 60 -7 85 -11 25 -4 61 -9 80 -11 19 -2 49 -6 65 -9 29 -5 60 -9
155 -19 68 -8 85 -12 85 -22 0 -5 -5 -40 -9 -79 -5 -38 -10 -84 -11 -100 -2
-39 22 -125 35 -125 6 0 10 -6 10 -13 0 -7 10 -19 22 -27 12 -8 29 -22 38 -30
9 -8 22 -16 27 -17 70 -14 105 -20 176 -27 21 -2 41 -6 44 -10 3 -3 15 -1 26
5 15 9 18 8 12 -2 -6 -9 -4 -11 7 -6 9 3 19 3 22 -1 4 -3 28 -7 54 -8 26 -1
47 -3 47 -4 0 -1 14 -4 30 -6 17 -2 48 -6 70 -9 22 -3 56 -8 75 -10 19 -2 51
-7 70 -10 57 -8 133 -17 163 -19 15 0 27 -3 27 -6 0 -5 60 -11 137 -14 18 0
33 -4 33 -8 0 -4 17 -7 38 -8 38 0 97 -7 97 -10 0 -1 16 -4 35 -6 19 -2 53 -6
75 -8 22 -2 60 -7 85 -11 25 -4 59 -9 75 -11 80 -9 123 -15 150 -19 17 -2 47
-7 68 -9 20 -3 42 -8 47 -11 6 -3 10 0 10 7 0 10 2 10 8 0 5 -7 22 -10 40 -8
18 2 32 0 32 -4 0 -4 15 -7 33 -8 32 -2 65 -6 142 -17 22 -3 58 -8 80 -10 22
-2 40 -4 40 -5 0 -1 11 -3 25 -5 14 -2 50 -6 80 -10 112 -15 192 -11 235 12
41 22 75 55 75 73 0 6 5 10 11 10 5 0 7 5 4 10 -3 6 -2 10 3 10 5 0 9 6 9 13
1 22 8 42 18 49 6 5 5 8 -3 8 -7 0 -10 4 -7 10 3 5 8 26 11 47 12 95 16 104
47 97 12 -2 40 -7 62 -9 22 -3 72 -9 110 -14 79 -11 89 -12 145 -14 22 -1 40
-5 40 -8 0 -3 6 -6 13 -6 27 -1 147 -15 235 -29 71 -11 137 -19 227 -29 22 -3
56 -8 75 -11 19 -3 49 -7 65 -9 17 -2 52 -6 80 -10 61 -8 56 -8 80 -6 54 4 84
72 56 126 -9 17 -20 33 -24 36 -5 3 -9 10 -9 15 -1 16 -21 58 -36 77 -9 9 -12
17 -9 17 4 0 -9 27 -28 59 -19 33 -35 64 -35 70 0 6 -5 11 -11 11 -5 0 -8 4
-4 9 3 5 -2 16 -10 25 -9 8 -16 19 -17 23 -1 17 -17 51 -26 57 -5 3 -7 22 -5
43 2 21 5 58 7 83 2 25 7 56 10 70 4 14 8 45 11 70 2 25 6 56 9 70 10 43 9
143 -3 192 -13 57 -55 135 -87 164 -13 12 -21 24 -17 28 3 3 -1 6 -10 6 -9 0
-17 4 -17 8 0 10 -82 58 -92 54 -5 -1 -8 3 -8 10 0 6 -3 9 -6 5 -3 -3 -18 -1
-33 5 -14 5 -42 12 -61 14 -19 2 -48 5 -65 8 -16 3 -55 8 -85 11 -56 6 -93 12
-97 15 -2 2 -9 3 -15 4 -8 1 -14 17 -15 41 -1 22 -5 58 -9 80 -3 22 -7 51 -9
65 -1 14 -3 25 -5 25 -3 0 -10 47 -11 68 0 9 -5 17 -10 17 -6 0 -8 4 -4 10 9
14 -38 158 -92 278 -12 29 -23 57 -23 62 0 6 -4 10 -8 10 -5 0 -14 16 -22 35
-8 19 -18 35 -22 35 -5 0 -6 5 -3 10 3 6 1 10 -4 10 -6 0 -11 7 -11 15 0 8 -9
24 -20 35 -11 11 -20 24 -20 28 0 5 -8 18 -17 30 -45 52 -53 62 -49 62 3 0
-12 19 -32 42 -55 62 -180 188 -186 188 -6 0 -28 19 -71 60 -12 11 -26 20 -33
20 -7 0 -12 4 -12 9 0 5 -13 14 -30 21 -16 7 -30 16 -30 20 0 4 -16 15 -35 24
-19 9 -35 21 -35 27 0 6 -4 7 -10 4 -5 -3 -10 -1 -10 6 0 7 -3 9 -7 6 -3 -4
-15 1 -26 10 -15 13 -19 14 -13 3 4 -8 0 -6 -9 5 -9 11 -19 19 -23 18 -4 -1
-23 5 -42 14 -19 8 -51 22 -70 31 -19 8 -36 15 -37 14 -2 -1 -20 5 -40 13 -21
8 -81 26 -133 39 l-95 23 1 34 c1 30 8 97 20 179 8 57 15 117 19 150 2 19 4
35 5 35 1 0 3 18 6 39 4 43 6 46 26 50 34 6 128 73 128 91 0 5 6 16 14 24 27
30 39 133 21 186 -5 17 -18 43 -28 58 -9 14 -17 31 -17 37 0 6 -5 8 -10 5 -6
-3 -13 1 -16 9 -7 18 -77 53 -123 61 -19 3 -37 8 -41 10 -4 3 -10 1 -14 -3z"/>
</g>
</svg>
